<svg width="1024" height="1024" viewBox="0 0 1024 1024" fill="none" xmlns="http://www.w3.org/2000/svg">
<rect width="1024" height="1024" fill="#1E1E1E"/>
<rect width="1024" height="1024" fill="#0055FF"/>
<path d="M472.2 616C458.2 624 446 625 435.6 619C425.2 613 420 602 420 586V442C420 431.2 422.4 420 427.2 408.4C432 396.4 438.4 385.4 446.4 375.4C454.4 365 463 357.2 472.2 352L601.8 277C615.4 269 627.4 268 637.8 274C648.6 280 654 291 654 307V391L601.8 421V337L472.2 412V556L601.8 481C615.4 473 627.4 472 637.8 478C648.6 484 654 495 654 511V655C654 665.4 651.4 676.6 646.2 688.6C641.4 700.6 635 711.8 627 722.2C619.4 732.2 611 739.8 601.8 745L472.2 820C458.2 828 446 829 435.6 823C425.2 817 420 806 420 790V730L472.2 700V760L601.8 685V541L472.2 616ZM601.8 541V685L549.6 655V511L601.8 541ZM601.8 685L472.2 760L420 730L549.6 655L601.8 685ZM601.8 337V421L549.6 391V307L601.8 337ZM472.2 700L420 730L367.8 700L420 670L472.2 700ZM420 730V790C420 806 425.2 817 435.6 823L383.4 793C373 787 367.8 776 367.8 760V700L420 730ZM638.4 478C627.6 472 615.4 473 601.8 481L472.2 556L420 526L549.6 451C563.6 443 575.8 442 586.2 448L638.4 478ZM638.4 274C627.6 268 615.4 269 601.8 277L472.2 352C463 357.2 454.4 365 446.4 375.4C438.4 385.4 432 396.4 427.2 408.4C422.4 420 420 431.2 420 442V586C420 602 425.2 613 435.6 619L383.4 589C373 583 367.8 572 367.8 556V412C367.8 401.2 370.2 390 375 378.4C379.8 366.4 386.2 355.4 394.2 345.4C402.2 335 410.8 327.2 420 322L549.6 247C563.6 239 575.8 238 586.2 244L638.4 274Z" fill="white"/>
</svg>
