<svg width="1024" height="986" viewBox="0 0 1024 986" fill="none" xmlns="http://www.w3.org/2000/svg">
<path d="M472.2 578C458.2 586 446 587 435.6 581C425.2 575 420 564 420 548V404C420 393.2 422.4 382 427.2 370.4C432 358.4 438.4 347.4 446.4 337.4C454.4 327 463 319.2 472.2 314L601.8 239C615.4 231 627.4 230 637.8 236C648.6 242 654 253 654 269V353L601.8 383V299L472.2 374V518L601.8 443C615.4 435 627.4 434 637.8 440C648.6 446 654 457 654 473V617C654 627.4 651.4 638.6 646.2 650.6C641.4 662.6 635 673.8 627 684.2C619.4 694.2 611 701.8 601.8 707L472.2 782C458.2 790 446 791 435.6 785C425.2 779 420 768 420 752V692L472.2 662V722L601.8 647V503L472.2 578ZM601.8 503V647L549.6 617V473L601.8 503ZM601.8 647L472.2 722L420 692L549.6 617L601.8 647ZM601.8 299V383L549.6 353V269L601.8 299ZM472.2 662L420 692L367.8 662L420 632L472.2 662ZM420 692V752C420 768 425.2 779 435.6 785L383.4 755C373 749 367.8 738 367.8 722V662L420 692ZM638.4 440C627.6 434 615.4 435 601.8 443L472.2 518L420 488L549.6 413C563.6 405 575.8 404 586.2 410L638.4 440ZM638.4 236C627.6 230 615.4 231 601.8 239L472.2 314C463 319.2 454.4 327 446.4 337.4C438.4 347.4 432 358.4 427.2 370.4C422.4 382 420 393.2 420 404V548C420 564 425.2 575 435.6 581L383.4 551C373 545 367.8 534 367.8 518V374C367.8 363.2 370.2 352 375 340.4C379.8 328.4 386.2 317.4 394.2 307.4C402.2 297 410.8 289.2 420 284L549.6 209C563.6 201 575.8 200 586.2 206L638.4 236Z" fill="white"/>
</svg>
